<svg width="22" height="22" viewBox="0 0 22 22" fill="none" xmlns="http://www.w3.org/2000/svg">
<g clip-path="url(#clip0_3458_1201)">
<rect width="21.6355" height="21.6355" fill="#F6F6F6"/>
<path d="M19.184 16.6087C18.8705 17.3331 18.4993 17.9999 18.0693 18.613C17.4831 19.4487 17.0032 20.0272 16.6333 20.3484C16.06 20.8757 15.4456 21.1458 14.7878 21.1611C14.3155 21.1611 13.746 21.0267 13.083 20.7541C12.4179 20.4828 11.8067 20.3484 11.2478 20.3484C10.6616 20.3484 10.0329 20.4828 9.36052 20.7541C8.68707 21.0267 8.14454 21.1688 7.72975 21.1829C7.09892 21.2098 6.47013 20.932 5.8425 20.3484C5.44191 19.999 4.94086 19.4001 4.34061 18.5515C3.6966 17.6454 3.16713 16.5947 2.75233 15.3967C2.3081 14.1028 2.08541 12.8499 2.08541 11.6368C2.08541 10.2473 2.38566 9.04888 2.98706 8.04459C3.4597 7.23791 4.08848 6.60158 4.87546 6.13444C5.66243 5.6673 6.51275 5.42925 7.42847 5.41402C7.92953 5.41402 8.5866 5.56901 9.40314 5.87361C10.2174 6.17923 10.7402 6.33422 10.9694 6.33422C11.1408 6.33422 11.7216 6.153 12.7061 5.7917C13.6372 5.45664 14.423 5.3179 15.0668 5.37255C16.8112 5.51333 18.1218 6.20099 18.9933 7.43987C17.4332 8.38516 16.6615 9.70915 16.6768 11.4076C16.6909 12.7306 17.1708 13.8315 18.1141 14.7056C18.5416 15.1113 19.0189 15.4249 19.5501 15.6476C19.4349 15.9816 19.3133 16.3016 19.184 16.6087ZM15.1833 0.865481C15.1833 1.90242 14.8044 2.8706 14.0493 3.76674C13.1381 4.83208 12.0359 5.44768 10.8406 5.35054C10.8254 5.22614 10.8166 5.09521 10.8166 4.95763C10.8166 3.96217 11.2499 2.89684 12.0195 2.02578C12.4037 1.58475 12.8924 1.21804 13.4849 0.925505C14.0762 0.637337 14.6355 0.477974 15.1615 0.450684C15.1769 0.589306 15.1833 0.727936 15.1833 0.865468V0.865481Z" fill="#0C0C0C"/>
</g>
<defs>
<clipPath id="clip0_3458_1201">
<rect width="21.6355" height="21.6355" fill="white"/>
</clipPath>
</defs>
</svg>
