<svg width="79" height="100" viewBox="0 0 79 100" fill="none" xmlns="http://www.w3.org/2000/svg">
<g filter="url(#filter0_dd_1_2836)">
<path d="M39.2 0C58.53 0 74.2 15.8862 74.2 35.4829C74.2 47.0972 67.7903 55.8554 61.4132 63.881C60.3033 65.2778 59.5593 66.38 59.0403 66.9814L44.24 89.1234C42.4531 91.6417 35.6408 91.622 33.88 89.085L20.0271 67.5828C19.6564 66.8311 16.933 63.4919 16.6161 63.0723C9.34916 53.4498 4.20001 47.1845 4.20001 35.4829C4.20001 15.8862 19.87 0 39.2 0Z" fill="#FFF4DB"/>
<path d="M39.2 1.75C57.5408 1.75 72.4498 16.8298 72.45 35.4824C72.45 46.4241 66.434 54.7487 60.0428 62.792C59.4677 63.5157 58.9888 64.1625 58.5994 64.6875C58.1935 65.2349 57.9227 65.598 57.7156 65.8379L57.6453 65.9199L57.5858 66.0088L42.8123 88.1104C42.6586 88.3269 42.2793 88.6315 41.5506 88.8799C40.8477 89.1194 39.9711 89.2531 39.0565 89.25C38.1416 89.2469 37.2666 89.1075 36.5672 88.8633C35.8512 88.6132 35.4778 88.3106 35.324 88.0947L21.5115 66.6553C21.3257 66.3258 21.0422 65.9235 20.7928 65.584C20.4651 65.1379 20.0677 64.6205 19.6805 64.125C18.868 63.0853 18.1666 62.2216 18.0125 62.0176C10.6926 52.3249 5.95001 46.5113 5.95001 35.4824C5.95025 16.8298 20.8592 1.75 39.2 1.75Z" stroke="#292929" stroke-width="3.5"/>
</g>
<path d="M40.1128 48.7491V46.9235C40.1128 45.4586 40.4283 44.1063 41.0594 42.8667C41.7017 41.6271 42.6314 40.6298 43.8484 39.8748C45.0655 39.1198 46.5474 38.7423 48.294 38.7423C50.0858 38.7423 51.5902 39.1141 52.8073 39.8579C54.0356 40.6016 54.9653 41.5933 55.5963 42.8329C56.2274 44.0725 56.5429 45.436 56.5429 46.9235V48.7491C56.5429 50.214 56.2217 51.5663 55.5794 52.8059C54.9484 54.0455 54.0187 55.0428 52.7904 55.7978C51.562 56.5528 50.0633 56.9303 48.294 56.9303C46.5248 56.9303 45.0317 56.5528 43.8146 55.7978C42.5976 55.0428 41.6735 54.0455 41.0425 52.8059C40.4227 51.5663 40.1128 50.214 40.1128 48.7491ZM45.9952 46.9235V48.7491C45.9952 49.3914 46.1529 50.0281 46.4685 50.6592C46.7953 51.279 47.4038 51.5889 48.294 51.5889C49.2294 51.5889 49.8435 51.2846 50.1365 50.6761C50.4408 50.0675 50.5929 49.4252 50.5929 48.7491V46.9235C50.5929 46.2474 50.452 45.5938 50.1703 44.9627C49.8886 44.3317 49.2632 44.0161 48.294 44.0161C47.4038 44.0161 46.7953 44.3317 46.4685 44.9627C46.1529 45.5938 45.9952 46.2474 45.9952 46.9235ZM21.9923 28.9383V27.1127C21.9923 25.6252 22.3135 24.2617 22.9558 23.0221C23.6094 21.7825 24.5448 20.7908 25.7618 20.0471C26.9788 19.3033 28.4494 18.9315 30.1736 18.9315C31.9654 18.9315 33.4698 19.3033 34.6868 20.0471C35.9151 20.7908 36.8448 21.7825 37.4759 23.0221C38.1069 24.2617 38.4225 25.6252 38.4225 27.1127V28.9383C38.4225 30.4258 38.1013 31.7837 37.459 33.012C36.8279 34.2403 35.8982 35.2207 34.6699 35.9532C33.4416 36.6857 31.9428 37.0519 30.1736 37.0519C28.4044 37.0519 26.9112 36.68 25.6942 35.9363C24.4771 35.1925 23.5531 34.2065 22.922 32.9782C22.3022 31.7499 21.9923 30.4032 21.9923 28.9383ZM27.9423 27.1127V28.9383C27.9423 29.6144 28.1001 30.2568 28.4156 30.8653C28.7312 31.4738 29.3172 31.7781 30.1736 31.7781C31.1089 31.7781 31.7231 31.4738 32.0161 30.8653C32.3203 30.2568 32.4725 29.6144 32.4725 28.9383V27.1127C32.4725 26.4366 32.3316 25.783 32.0499 25.1519C31.7681 24.5209 31.1427 24.2053 30.1736 24.2053C29.2833 24.2053 28.6861 24.5321 28.3818 25.1857C28.0888 25.8281 27.9423 26.4704 27.9423 27.1127ZM24.8659 55.24L48.6659 20.6218H53.4665L29.6665 55.24H24.8659Z" fill="#292929"/>
<defs>
<filter id="filter0_dd_1_2836" x="1.19209e-05" y="0" width="78.4" height="99.4" filterUnits="userSpaceOnUse" color-interpolation-filters="sRGB">
<feFlood flood-opacity="0" result="BackgroundImageFix"/>
<feColorMatrix in="SourceAlpha" type="matrix" values="0 0 0 0 0 0 0 0 0 0 0 0 0 0 0 0 0 0 127 0" result="hardAlpha"/>
<feOffset dy="4.2"/>
<feGaussianBlur stdDeviation="2.1"/>
<feComposite in2="hardAlpha" operator="out"/>
<feColorMatrix type="matrix" values="0 0 0 0 0 0 0 0 0 0 0 0 0 0 0 0 0 0 0.25 0"/>
<feBlend mode="normal" in2="BackgroundImageFix" result="effect1_dropShadow_1_2836"/>
<feColorMatrix in="SourceAlpha" type="matrix" values="0 0 0 0 0 0 0 0 0 0 0 0 0 0 0 0 0 0 127 0" result="hardAlpha"/>
<feOffset dy="0.56"/>
<feGaussianBlur stdDeviation="0.28"/>
<feComposite in2="hardAlpha" operator="out"/>
<feColorMatrix type="matrix" values="0 0 0 0 0 0 0 0 0 0 0 0 0 0 0 0 0 0 0.25 0"/>
<feBlend mode="normal" in2="effect1_dropShadow_1_2836" result="effect2_dropShadow_1_2836"/>
<feBlend mode="normal" in="SourceGraphic" in2="effect2_dropShadow_1_2836" result="shape"/>
</filter>
</defs>
</svg>
