<svg width="260" height="230" viewBox="0 0 260 230" fill="none" xmlns="http://www.w3.org/2000/svg">
<g filter="url(#filter0_dd_1_977)">
<path d="M130 0C160.376 0 185 24.9641 185 55.7588C185 74.0099 174.928 87.7728 164.906 100.384C163.162 102.579 161.993 104.311 161.178 105.257L137.92 140.051C135.112 144.008 124.407 143.977 121.64 139.991L99.8712 106.202C99.2886 105.02 95.009 99.773 94.511 99.1136C83.0915 83.9926 75 74.1471 75 55.7588C75 24.9641 99.6243 0 130 0Z" fill="#FFF4DB"/>
<path d="M130 2.75C158.821 2.75 182.25 26.4472 182.25 55.7588C182.25 72.9529 172.796 86.0342 162.753 98.6738C161.849 99.811 161.097 100.826 160.485 101.651C159.847 102.512 159.421 103.083 159.096 103.46L158.985 103.588L158.892 103.729L135.669 138.469C135.423 138.808 134.828 139.282 133.693 139.669C132.589 140.045 131.211 140.255 129.773 140.25C128.336 140.245 126.962 140.026 125.863 139.643C124.743 139.251 124.156 138.778 123.912 138.439L102.241 104.803C101.951 104.274 101.482 103.615 101.074 103.061C100.559 102.359 99.9347 101.547 99.3262 100.769C98.0493 99.1347 96.9472 97.7766 96.7051 97.4561C85.2024 82.2249 77.75 73.0898 77.75 55.7588C77.75 26.4472 101.179 2.75 130 2.75Z" stroke="#292929" stroke-width="5.5"/>
</g>
<path d="M18.0148 219.6C14.612 219.6 11.6712 218.923 9.19219 217.568C6.72862 216.213 4.82706 214.25 3.48749 211.679C2.16332 209.107 1.50124 205.989 1.50124 202.325V202.302C1.50124 198.637 2.17102 195.527 3.51059 192.971C4.85015 190.4 6.75172 188.444 9.21529 187.104C11.6943 185.75 14.6274 185.072 18.0148 185.072C21.1097 185.072 23.8119 185.68 26.1215 186.897C28.4465 188.113 30.2557 189.768 31.5491 191.862C32.8425 193.941 33.4891 196.289 33.4891 198.907V199.114H24.1122L24.0891 198.837C23.9967 197.729 23.6965 196.743 23.1883 195.881C22.6956 195.003 22.0104 194.318 21.1328 193.825C20.2706 193.317 19.2312 193.063 18.0148 193.063C16.6753 193.063 15.5128 193.425 14.5274 194.149C13.5573 194.872 12.8029 195.919 12.264 197.29C11.7404 198.66 11.4787 200.323 11.4787 202.279V202.302C11.4787 204.272 11.7404 205.958 12.264 207.36C12.8029 208.745 13.565 209.8 14.5505 210.524C15.5359 211.247 16.6984 211.609 18.0379 211.609C19.1619 211.609 20.1628 211.371 21.0404 210.893C21.9181 210.416 22.6263 209.746 23.1652 208.884C23.7042 208.006 24.0275 206.982 24.1353 205.812L24.1584 205.558H33.5353V205.812C33.5353 208.414 32.8732 210.755 31.5491 212.833C30.2403 214.912 28.4234 216.56 26.0984 217.776C23.7734 218.992 21.0789 219.6 18.0148 219.6ZM33.3044 219L44.1826 185.673H53.421V193.618H50.2337L43.6052 219H33.3044ZM40.1408 212.371L42.1732 205.466H58.479L60.5114 212.371H40.1408ZM57.047 219L50.4185 193.618V185.673H56.4696L67.3478 219H57.047ZM70.3503 219V185.673H85.3627C88.2266 185.673 90.6362 186.111 92.5917 186.989C94.5626 187.867 96.0561 189.152 97.0723 190.846C98.0885 192.54 98.5967 194.618 98.5967 197.082V197.128C98.5967 199.207 98.1039 201.108 97.1185 202.833C96.1485 204.557 94.8551 205.812 93.2384 206.597L99.5667 219H88.6192L83.3533 208.053C83.2917 208.053 83.2224 208.053 83.1455 208.053C83.0685 208.053 82.9915 208.053 82.9145 208.053H80.143V219H70.3503ZM80.143 201.147H84.231C85.5551 201.147 86.6175 200.77 87.4182 200.015C88.2189 199.261 88.6192 198.275 88.6192 197.059V197.013C88.6192 195.796 88.2112 194.811 87.3951 194.056C86.5791 193.286 85.5243 192.902 84.231 192.902H80.143V201.147ZM102.592 219V185.673H116.842C120.214 185.673 123.094 186.296 125.48 187.543C127.882 188.79 129.715 190.63 130.977 193.063C132.255 195.496 132.894 198.491 132.894 202.048V202.094C132.894 205.651 132.255 208.692 130.977 211.217C129.715 213.742 127.882 215.674 125.48 217.014C123.094 218.338 120.214 219 116.842 219H102.592ZM112.385 211.217H115.457C117.089 211.217 118.459 210.886 119.568 210.224C120.676 209.546 121.508 208.538 122.062 207.198C122.632 205.843 122.917 204.142 122.917 202.094V202.048C122.917 200.184 122.616 198.614 122.016 197.336C121.431 196.058 120.576 195.096 119.452 194.449C118.344 193.787 117.012 193.456 115.457 193.456H112.385V211.217ZM136.728 219V185.673H160.24V193.433H146.521V198.745H159.385V205.951H146.521V211.24H160.24V219H136.728ZM163.196 219L174.074 185.673H183.313V193.618H180.125L173.497 219H163.196ZM170.032 212.371L172.065 205.466H188.371L190.403 212.371H170.032ZM186.939 219L180.31 193.618V185.673H186.361L197.239 219H186.939ZM200.242 219V185.673H210.035V211.24H223.107V219H200.242ZM241.376 219.6C237.942 219.6 234.971 218.908 232.461 217.522C229.951 216.121 228.011 214.127 226.641 211.54C225.286 208.953 224.608 205.889 224.608 202.348V202.302C224.608 198.76 225.293 195.704 226.664 193.133C228.034 190.546 229.974 188.56 232.484 187.174C234.994 185.773 237.958 185.072 241.376 185.072C244.825 185.072 247.804 185.773 250.314 187.174C252.839 188.575 254.779 190.561 256.134 193.133C257.505 195.704 258.19 198.76 258.19 202.302V202.348C258.19 205.889 257.505 208.953 256.134 211.54C254.779 214.111 252.847 216.098 250.337 217.499C247.827 218.9 244.84 219.6 241.376 219.6ZM241.376 211.609C242.792 211.609 244.009 211.232 245.025 210.478C246.041 209.723 246.827 208.653 247.381 207.267C247.935 205.881 248.212 204.242 248.212 202.348V202.302C248.212 200.392 247.927 198.753 247.358 197.382C246.803 195.996 246.01 194.934 244.979 194.195C243.963 193.44 242.762 193.063 241.376 193.063C240.021 193.063 238.828 193.433 237.796 194.172C236.78 194.911 235.987 195.973 235.417 197.359C234.863 198.729 234.586 200.377 234.586 202.302V202.348C234.586 204.257 234.863 205.905 235.417 207.29C235.987 208.676 236.78 209.746 237.796 210.501C238.812 211.24 240.006 211.609 241.376 211.609Z" fill="#393A39"/>
<path d="M131.934 77.32V74.4512C131.934 72.1492 132.43 70.0242 133.422 68.0762C134.431 66.1283 135.892 64.5611 137.805 63.3747C139.717 62.1882 142.046 61.595 144.791 61.595C147.606 61.595 149.97 62.1794 151.883 63.3481C153.813 64.5169 155.274 66.0752 156.266 68.0231C157.257 69.971 157.753 72.1137 157.753 74.4512V77.32C157.753 79.6221 157.248 81.7471 156.239 83.695C155.247 85.6429 153.786 87.2101 151.856 88.3966C149.926 89.583 147.571 90.1762 144.791 90.1762C142.01 90.1762 139.664 89.583 137.752 88.3966C135.839 87.2101 134.387 85.6429 133.395 83.695C132.421 81.7471 131.934 79.6221 131.934 77.32ZM141.178 74.4512V77.32C141.178 78.3294 141.426 79.3299 141.922 80.3216C142.435 81.2955 143.392 81.7825 144.791 81.7825C146.26 81.7825 147.226 81.3044 147.686 80.3481C148.164 79.3919 148.403 78.3825 148.403 77.32V74.4512C148.403 73.3887 148.182 72.3617 147.739 71.37C147.296 70.3783 146.314 69.8825 144.791 69.8825C143.392 69.8825 142.435 70.3783 141.922 71.37C141.426 72.3617 141.178 73.3887 141.178 74.4512ZM103.459 46.1887V43.32C103.459 40.9825 103.964 38.8398 104.973 36.8919C106.001 34.9439 107.47 33.3856 109.383 32.2169C111.295 31.0481 113.606 30.4637 116.316 30.4637C119.131 30.4637 121.495 31.0481 123.408 32.2169C125.338 33.3856 126.799 34.9439 127.791 36.8919C128.782 38.8398 129.278 40.9825 129.278 43.32V46.1887C129.278 48.5262 128.773 50.6601 127.764 52.5903C126.772 54.5205 125.311 56.0611 123.381 57.2122C121.451 58.3632 119.096 58.9387 116.316 58.9387C113.535 58.9387 111.189 58.3544 109.277 57.1856C107.364 56.0169 105.912 54.4674 104.92 52.5372C103.946 50.607 103.459 48.4908 103.459 46.1887ZM112.809 43.32V46.1887C112.809 47.2512 113.057 48.2606 113.553 49.2169C114.049 50.1731 114.97 50.6512 116.316 50.6512C117.785 50.6512 118.751 50.1731 119.211 49.2169C119.689 48.2606 119.928 47.2512 119.928 46.1887V43.32C119.928 42.2575 119.707 41.2304 119.264 40.2387C118.821 39.2471 117.839 38.7512 116.316 38.7512C114.917 38.7512 113.978 39.2648 113.5 40.2919C113.04 41.3012 112.809 42.3106 112.809 43.32ZM107.975 87.52L145.375 33.12H152.919L115.519 87.52H107.975Z" fill="#292929"/>
<defs>
<filter id="filter0_dd_1_977" x="68.4" y="0" width="123.2" height="156.2" filterUnits="userSpaceOnUse" color-interpolation-filters="sRGB">
<feFlood flood-opacity="0" result="BackgroundImageFix"/>
<feColorMatrix in="SourceAlpha" type="matrix" values="0 0 0 0 0 0 0 0 0 0 0 0 0 0 0 0 0 0 127 0" result="hardAlpha"/>
<feOffset dy="6.6"/>
<feGaussianBlur stdDeviation="3.3"/>
<feComposite in2="hardAlpha" operator="out"/>
<feColorMatrix type="matrix" values="0 0 0 0 0 0 0 0 0 0 0 0 0 0 0 0 0 0 0.25 0"/>
<feBlend mode="normal" in2="BackgroundImageFix" result="effect1_dropShadow_1_977"/>
<feColorMatrix in="SourceAlpha" type="matrix" values="0 0 0 0 0 0 0 0 0 0 0 0 0 0 0 0 0 0 127 0" result="hardAlpha"/>
<feOffset dy="0.88"/>
<feGaussianBlur stdDeviation="0.44"/>
<feComposite in2="hardAlpha" operator="out"/>
<feColorMatrix type="matrix" values="0 0 0 0 0 0 0 0 0 0 0 0 0 0 0 0 0 0 0.25 0"/>
<feBlend mode="normal" in2="effect1_dropShadow_1_977" result="effect2_dropShadow_1_977"/>
<feBlend mode="normal" in="SourceGraphic" in2="effect2_dropShadow_1_977" result="shape"/>
</filter>
</defs>
</svg>
