<svg width="260" height="231" viewBox="0 0 260 231" fill="none" xmlns="http://www.w3.org/2000/svg">
<g filter="url(#filter0_dd_1_1061)">
<path d="M130 0C160.376 0 185 24.9641 185 55.7588C185 74.0099 174.928 87.7728 164.906 100.384C163.162 102.579 161.993 104.311 161.178 105.257L137.92 140.051C135.112 144.008 124.407 143.977 121.64 139.991L99.8712 106.202C99.2886 105.02 95.009 99.773 94.511 99.1136C83.0915 83.9926 75 74.1471 75 55.7588C75 24.9641 99.6243 0 130 0Z" fill="#393A39"/>
<path d="M130 2.75C158.821 2.75 182.25 26.4472 182.25 55.7588C182.25 72.9529 172.796 86.0342 162.753 98.6738C161.849 99.811 161.097 100.826 160.485 101.651C159.847 102.512 159.421 103.083 159.096 103.46L158.985 103.588L158.892 103.729L135.669 138.469C135.423 138.808 134.828 139.282 133.693 139.669C132.589 140.045 131.211 140.255 129.773 140.25C128.336 140.245 126.962 140.026 125.863 139.643C124.743 139.251 124.156 138.778 123.912 138.439L102.241 104.803C101.951 104.274 101.482 103.615 101.074 103.061C100.559 102.359 99.9347 101.547 99.3262 100.769C98.0493 99.1347 96.9472 97.7766 96.7051 97.4561C85.2024 82.2249 77.75 73.0898 77.75 55.7588C77.75 26.4472 101.179 2.75 130 2.75Z" stroke="white" stroke-width="5.5"/>
</g>
<path d="M18.0132 220.6C14.6107 220.6 11.6701 219.923 9.19134 218.568C6.728 217.213 4.82661 215.25 3.48717 212.679C2.16312 210.108 1.5011 206.99 1.5011 203.326V203.303C1.5011 199.639 2.17082 196.529 3.51026 193.973C4.8497 191.402 6.75109 189.447 9.21443 188.107C11.6932 186.753 14.6261 186.075 18.0132 186.075C21.1077 186.075 23.8097 186.683 26.1191 187.9C28.4439 189.116 30.2529 190.771 31.5461 192.865C32.8394 194.943 33.486 197.291 33.486 199.908V200.116H24.1099L24.0868 199.839C23.9945 198.731 23.6943 197.745 23.1862 196.883C22.6935 196.006 22.0084 195.32 21.1308 194.828C20.2687 194.32 19.2294 194.066 18.0132 194.066C16.6737 194.066 15.5113 194.427 14.526 195.151C13.5561 195.875 12.8017 196.922 12.2628 198.292C11.7394 199.662 11.4776 201.325 11.4776 203.28V203.303C11.4776 205.274 11.7394 206.96 12.2628 208.361C12.8017 209.746 13.5638 210.801 14.5491 211.525C15.5344 212.248 16.6968 212.61 18.0363 212.61C19.1602 212.61 20.1609 212.371 21.0385 211.894C21.916 211.417 22.6242 210.747 23.1631 209.885C23.702 209.007 24.0253 207.984 24.133 206.813L24.1561 206.559H33.5322V206.813C33.5322 209.415 32.8702 211.756 31.5461 213.834C30.2375 215.912 28.4208 217.56 26.096 218.776C23.7712 219.992 21.077 220.6 18.0132 220.6ZM33.3013 220L44.1785 186.676H53.416V194.62H50.229L43.6011 220H33.3013ZM40.1371 213.372L42.1693 206.467H58.4735L60.5058 213.372H40.1371ZM57.0417 220L50.4138 194.62V186.676H56.4644L67.3416 220H57.0417ZM70.3438 220V186.676H85.3547C88.2184 186.676 90.6278 187.114 92.5831 187.992C94.5538 188.87 96.0472 190.155 97.0633 191.849C98.0794 193.542 98.5875 195.621 98.5875 198.084V198.13C98.5875 200.209 98.0948 202.11 97.1095 203.834C96.1395 205.559 94.8463 206.813 93.2297 207.599L99.5574 220H88.611L83.3456 209.054C83.284 209.054 83.2147 209.054 83.1377 209.054C83.0608 209.054 82.9838 209.054 82.9068 209.054H80.1355V220H70.3438ZM80.1355 202.148H84.2231C85.5472 202.148 86.6095 201.771 87.4101 201.017C88.2107 200.262 88.611 199.277 88.611 198.061V198.015C88.611 196.798 88.203 195.813 87.387 195.059C86.571 194.289 85.5164 193.904 84.2231 193.904H80.1355V202.148ZM102.583 220V186.676H116.832C120.203 186.676 123.082 187.299 125.469 188.546C127.87 189.793 129.703 191.633 130.965 194.066C132.243 196.498 132.882 199.493 132.882 203.049V203.095C132.882 206.652 132.243 209.692 130.965 212.217C129.703 214.742 127.87 216.674 125.469 218.014C123.082 219.338 120.203 220 116.832 220H102.583ZM112.375 212.217H115.446C117.078 212.217 118.448 211.886 119.557 211.224C120.665 210.547 121.497 209.539 122.051 208.199C122.62 206.844 122.905 205.143 122.905 203.095V203.049C122.905 201.186 122.605 199.616 122.005 198.338C121.42 197.06 120.565 196.098 119.441 195.451C118.333 194.789 117.001 194.458 115.446 194.458H112.375V212.217ZM136.715 220V186.676H160.225V194.435H146.507V199.747H159.37V206.952H146.507V212.24H160.225V220H136.715ZM163.181 220L174.058 186.676H183.296V194.62H180.109L173.481 220H163.181ZM170.017 213.372L172.049 206.467H188.353L190.385 213.372H170.017ZM186.921 220L180.293 194.62V186.676H186.344L197.221 220H186.921ZM200.223 220V186.676H210.015V212.24H223.086V220H200.223ZM241.353 220.6C237.92 220.6 234.949 219.908 232.439 218.522C229.93 217.121 227.99 215.127 226.62 212.541C225.265 209.954 224.587 206.89 224.587 203.349V203.303C224.587 199.762 225.272 196.706 226.643 194.135C228.013 191.548 229.953 189.562 232.462 188.177C234.972 186.776 237.936 186.075 241.353 186.075C244.802 186.075 247.781 186.776 250.291 188.177C252.816 189.578 254.756 191.564 256.11 194.135C257.481 196.706 258.166 199.762 258.166 203.303V203.349C258.166 206.89 257.481 209.954 256.11 212.541C254.756 215.112 252.823 217.098 250.314 218.499C247.804 219.9 244.818 220.6 241.353 220.6ZM241.353 212.61C242.77 212.61 243.986 212.233 245.002 211.478C246.018 210.724 246.804 209.654 247.358 208.268C247.912 206.883 248.189 205.243 248.189 203.349V203.303C248.189 201.394 247.904 199.754 247.335 198.384C246.78 196.999 245.988 195.936 244.956 195.197C243.94 194.443 242.739 194.066 241.353 194.066C239.999 194.066 238.805 194.435 237.774 195.174C236.758 195.913 235.965 196.975 235.395 198.361C234.841 199.731 234.564 201.379 234.564 203.303V203.349C234.564 205.258 234.841 206.906 235.395 208.291C235.965 209.677 236.758 210.747 237.774 211.501C238.79 212.24 239.983 212.61 241.353 212.61Z" fill="#393A39"/>
<path d="M131.934 77.32V74.4513C131.934 72.1492 132.43 70.0242 133.422 68.0763C134.431 66.1284 135.892 64.5612 137.805 63.3747C139.717 62.1882 142.046 61.595 144.791 61.595C147.606 61.595 149.97 62.1794 151.883 63.3481C153.813 64.5169 155.274 66.0752 156.266 68.0231C157.257 69.9711 157.753 72.1138 157.753 74.4513V77.32C157.753 79.6221 157.248 81.7471 156.239 83.695C155.247 85.6429 153.786 87.2101 151.856 88.3966C149.926 89.583 147.571 90.1763 144.791 90.1763C142.01 90.1763 139.664 89.583 137.752 88.3966C135.839 87.2101 134.387 85.6429 133.395 83.695C132.421 81.7471 131.934 79.6221 131.934 77.32ZM141.178 74.4513V77.32C141.178 78.3294 141.426 79.3299 141.922 80.3216C142.435 81.2955 143.392 81.7825 144.791 81.7825C146.26 81.7825 147.226 81.3044 147.686 80.3481C148.164 79.3919 148.403 78.3825 148.403 77.32V74.4513C148.403 73.3888 148.182 72.3617 147.739 71.37C147.296 70.3784 146.314 69.8825 144.791 69.8825C143.392 69.8825 142.435 70.3784 141.922 71.37C141.426 72.3617 141.178 73.3888 141.178 74.4513ZM103.459 46.1888V43.32C103.459 40.9825 103.964 38.8398 104.973 36.8919C106.001 34.944 107.47 33.3856 109.383 32.2169C111.295 31.0481 113.606 30.4638 116.316 30.4638C119.131 30.4638 121.495 31.0481 123.408 32.2169C125.338 33.3856 126.799 34.944 127.791 36.8919C128.782 38.8398 129.278 40.9825 129.278 43.32V46.1888C129.278 48.5263 128.773 50.6601 127.764 52.5903C126.772 54.5205 125.311 56.0612 123.381 57.2122C121.451 58.3633 119.096 58.9388 116.316 58.9388C113.535 58.9388 111.189 58.3544 109.277 57.1856C107.364 56.0169 105.912 54.4674 104.92 52.5372C103.946 50.607 103.459 48.4909 103.459 46.1888ZM112.809 43.32V46.1888C112.809 47.2513 113.057 48.2606 113.553 49.2169C114.049 50.1731 114.97 50.6513 116.316 50.6513C117.785 50.6513 118.751 50.1731 119.211 49.2169C119.689 48.2606 119.928 47.2513 119.928 46.1888V43.32C119.928 42.2575 119.707 41.2304 119.264 40.2388C118.821 39.2471 117.839 38.7513 116.316 38.7513C114.917 38.7513 113.978 39.2648 113.5 40.2919C113.04 41.3013 112.809 42.3106 112.809 43.32ZM107.975 87.52L145.375 33.12H152.919L115.519 87.52H107.975Z" fill="#FFF4DB"/>
<defs>
<filter id="filter0_dd_1_1061" x="68.4" y="0" width="123.2" height="156.2" filterUnits="userSpaceOnUse" color-interpolation-filters="sRGB">
<feFlood flood-opacity="0" result="BackgroundImageFix"/>
<feColorMatrix in="SourceAlpha" type="matrix" values="0 0 0 0 0 0 0 0 0 0 0 0 0 0 0 0 0 0 127 0" result="hardAlpha"/>
<feOffset dy="6.6"/>
<feGaussianBlur stdDeviation="3.3"/>
<feComposite in2="hardAlpha" operator="out"/>
<feColorMatrix type="matrix" values="0 0 0 0 0 0 0 0 0 0 0 0 0 0 0 0 0 0 0.25 0"/>
<feBlend mode="normal" in2="BackgroundImageFix" result="effect1_dropShadow_1_1061"/>
<feColorMatrix in="SourceAlpha" type="matrix" values="0 0 0 0 0 0 0 0 0 0 0 0 0 0 0 0 0 0 127 0" result="hardAlpha"/>
<feOffset dy="0.88"/>
<feGaussianBlur stdDeviation="0.44"/>
<feComposite in2="hardAlpha" operator="out"/>
<feColorMatrix type="matrix" values="0 0 0 0 0 0 0 0 0 0 0 0 0 0 0 0 0 0 0.25 0"/>
<feBlend mode="normal" in2="effect1_dropShadow_1_1061" result="effect2_dropShadow_1_1061"/>
<feBlend mode="normal" in="SourceGraphic" in2="effect2_dropShadow_1_1061" result="shape"/>
</filter>
</defs>
</svg>
