<svg width="14" height="14" viewBox="0 0 14 14" fill="none" xmlns="http://www.w3.org/2000/svg">
<path d="M2.17225 3.06911L0 0.932038L0.947383 0L3.11963 2.13707H13.3301C13.7001 2.13707 14 2.43213 14 2.79612C14 2.86026 13.9905 2.92406 13.9718 2.98549L12.364 8.25794C12.279 8.53666 12.0182 8.72758 11.7223 8.72758H3.51206V10.0457H10.881V11.3638H2.84215C2.47217 11.3638 2.17225 11.0687 2.17225 10.7047V3.06911ZM3.1771 14C2.62214 14 2.17225 13.5574 2.17225 13.0114C2.17225 12.4655 2.62214 12.0228 3.1771 12.0228C3.73207 12.0228 4.18196 12.4655 4.18196 13.0114C4.18196 13.5574 3.73207 14 3.1771 14ZM11.216 14C10.6609 14 10.2111 13.5574 10.2111 13.0114C10.2111 12.4655 10.6609 12.0228 11.216 12.0228C11.7709 12.0228 12.2208 12.4655 12.2208 13.0114C12.2208 13.5574 11.7709 14 11.216 14Z" fill="#212121"/>
</svg>
