<svg width="16" height="16" viewBox="0 0 16 16" fill="none" xmlns="http://www.w3.org/2000/svg">
<path d="M5.33337 12L8.00004 9.96671L10.6667 12L9.66671 8.70004L12.3334 6.80004H9.06671L8.00004 3.33337L6.93337 6.80004H3.66671L6.33337 8.70004L5.33337 12ZM8.00004 14.6667C7.07782 14.6667 6.21115 14.4917 5.40004 14.1417C4.58893 13.7917 3.88337 13.3167 3.28337 12.7167C2.68337 12.1167 2.20837 11.4112 1.85837 10.6C1.50837 9.78893 1.33337 8.92226 1.33337 8.00004C1.33337 7.07782 1.50837 6.21115 1.85837 5.40004C2.20837 4.58893 2.68337 3.88337 3.28337 3.28337C3.88337 2.68337 4.58893 2.20837 5.40004 1.85837C6.21115 1.50837 7.07782 1.33337 8.00004 1.33337C8.92226 1.33337 9.78893 1.50837 10.6 1.85837C11.4112 2.20837 12.1167 2.68337 12.7167 3.28337C13.3167 3.88337 13.7917 4.58893 14.1417 5.40004C14.4917 6.21115 14.6667 7.07782 14.6667 8.00004C14.6667 8.92226 14.4917 9.78893 14.1417 10.6C13.7917 11.4112 13.3167 12.1167 12.7167 12.7167C12.1167 13.3167 11.4112 13.7917 10.6 14.1417C9.78893 14.4917 8.92226 14.6667 8.00004 14.6667ZM8.00004 13.3334C9.48893 13.3334 10.75 12.8167 11.7834 11.7834C12.8167 10.75 13.3334 9.48893 13.3334 8.00004C13.3334 6.51115 12.8167 5.25004 11.7834 4.21671C10.75 3.18337 9.48893 2.66671 8.00004 2.66671C6.51115 2.66671 5.25004 3.18337 4.21671 4.21671C3.18337 5.25004 2.66671 6.51115 2.66671 8.00004C2.66671 9.48893 3.18337 10.75 4.21671 11.7834C5.25004 12.8167 6.51115 13.3334 8.00004 13.3334Z" fill="#212121"/>
</svg>
